<?xml version="1.0" encoding="utf-8"?>
<!-- Generator: Adobe Illustrator 27.9.0, SVG Export Plug-In . SVG Version: 6.00 Build 0)  -->
<svg version="1.1" id="Layer_1" xmlns="http://www.w3.org/2000/svg" xmlns:xlink="http://www.w3.org/1999/xlink" x="0px" y="0px"
	 viewBox="0 0 1000 1000" enable-background="new 0 0 1000 1000" xml:space="preserve">
<g id="f7ju5l_00000081614198567685166450000007864893147382743941_">
	<g>
		<path d="M780,1000H220C98.5,1000,0,901.5,0,780l0-560C0,98.5,98.5,0,220,0c186.7,0,373.3,0,560,0c121.5,0,220,98.5,220,220v560
			C1000,901.5,901.5,1000,780,1000z M382.4,432.2c-1.9,0-3.9,0-5.9,0c-21.2-0.4-41.2-5.5-59.7-16.1c-34.6-20-51.9-54.6-46.9-93.7
			c2-15.1,7.7-28.9,14.7-42.3c1.4-2.6,1.4-4.4-0.8-7c-15-17.7-29.7-35.5-44.4-53.4c-0.9-1.1-1.8-2.3-2.9-3.6c-0.6,0.8-1,1.3-1.3,1.8
			c-25.3,46.1-39.6,95.2-39.7,148.1c0,27.5,0.1,55,0,82.5c-0.2,38.7-0.7,77.3-5.4,115.8c-9.3,75.6-30,147.8-64.8,215.7
			c-0.7,1.4-1.3,2.9-2,4.3c0.2,0.2,0.5,0.4,0.7,0.6c33.8-27.3,67.7-54.6,101.8-82.1c24.6,40,48.9,79.4,73.5,119.2
			c25.9-24.3,51.3-48.3,77.2-72.6c41.1,66.7,82,133,123.3,200.1c41.3-67.1,82.2-133.4,123.3-200.1c25.9,24.4,51.3,48.3,77.2,72.6
			c24.7-40,49-79.5,73.5-119.2c34.4,27.8,68.3,55,102.1,82.3c0.3-1.4,0.1-2-0.2-2.6c-45.6-88-67.7-182-70.7-280.6
			c-1.2-39.8-1.5-79.7-0.7-119.5c1-53.2-9.1-103.7-33-151.3c-2.5-5-5.2-9.9-7.8-14.8c-0.8,0.5-1.2,0.5-1.4,0.8
			c-15.7,19-31.5,37.9-47.1,57c-0.9,1-1,3.4-0.5,4.7c2.8,6.8,6.4,13.2,8.9,20.1c12.7,34.9,9.4,67.6-15.4,96.4
			c-16.5,19.2-38.2,29.9-62.8,34.5c-9.3,1.7-18.8,2.1-28.6,3.2c0.2,1.5,0.4,3.1,0.5,4.7c1,11.4,2.1,22.9,2.7,34.4
			c0.2,3.8,1.3,5.9,4.6,7.8c29.2,16.7,58.3,33.6,87.5,50.4c1.7,1,3.3,2,5.7,3.4c-2.1,1.3-3.7,2.2-5.2,3.1
			c-21.5,12.1-42.8,24.5-64.6,36c-19.3,10.2-34.3,24.5-46.1,42.5c-4,6.1-8,12.3-11.6,18.7c-20.7,36.6-35.4,75.7-48,115.7
			c-13.9,44.2-26.8,88.7-40.1,133c-0.5,1.7-1.2,3.4-1.8,5.1c-6.2-17.3-11.2-34.4-16.2-51.5c-14.6-50.2-29.1-100.5-49-149
			c-12-29.2-25.4-57.6-44.9-82.8c-9.3-12-20.5-21.7-33.8-29.1c-23.2-12.8-46.2-25.9-69.3-38.8c-1.5-0.8-2.9-1.8-4.8-3
			c2.1-1.3,3.6-2.2,5-3c29.4-17,58.9-34,88.3-51.1c1.7-1,4-2.8,4.1-4.3C380.7,461.3,381.5,447.1,382.4,432.2z M208.6,96.3
			c0.8,2.4,1.4,4.2,2,5.9c8.2,22.1,19.9,42.2,34,60.8c53.9,70.9,121,126.1,200,167.2c3.1,1.6,5.2,1.3,8-0.7
			c29-20,63.1-20.7,91.9-1.6c5.1,3.4,8.6,3.5,13.7,0.8c66-34.5,123.2-80.3,172.8-135.7c21.9-24.6,41.1-51.2,54.4-81.6
			c2.1-4.8,3.9-9.8,5.8-14.7c-1.9,0.7-2.9,1.9-3.9,3.2c-10.6,13.5-23.1,25.1-38.1,33.3c-7.8,4.2-16.5,6.8-24.9,9.8
			c-4.1,1.4-7.3-0.1-10.6-3.3C646.3,74.1,565.4,45.3,472,53.1c-71.3,6-132.9,34.6-184,84.9c-5.2,5.1-10,6.3-16.4,4.3
			c-3.8-1.2-7.9-1.9-11.3-4c-10.4-6.5-21-12.8-30.6-20.4C222.1,111.8,215.9,103.9,208.6,96.3z M618.3,532.9
			c-12.6-7.3-24.2-14.4-36.3-20.8c-8.2-4.4-11.3-10.6-11.5-19.8c-0.3-17.1-0.5-34.4-2.8-51.3c-3.7-27.2-15.6-50.4-37.9-67.5
			c-19.2-14.7-40.7-14.8-59.8-0.1c-19,14.5-30.3,33.7-36,56.6c-5.2,20.7-5.8,41.9-4.9,63.1c0.3,8.1-2.7,14.1-9.9,18.2
			c-11.6,6.5-23.2,13.2-34.7,19.8c-0.9,0.5-1.6,1.3-2.2,1.8c8.7,6.3,17.6,12,25.7,18.6c27.6,22.4,46.5,51.4,59.5,83.9
			c11.2,28.1,20.3,57.1,30.3,85.7c0.6,1.6,1.1,3.2,2.2,6.2c2.3-7.4,4.3-13.4,6.1-19.4c9.9-31.1,19.8-62.2,34.8-91.4
			c17.5-34.1,41.3-62.4,74.8-81.9C616.4,534.4,617,533.9,618.3,532.9z M422.5,371.5c-34.7-17.5-67-37.6-96.9-61.1
			c-0.6,0.4-1,0.6-1.2,0.8c-11.1,23-8,46.4,15.2,61.2c15.3,9.7,32.2,12.2,49.9,10.2C401,381.2,411.8,377.8,422.5,371.5z
			 M674.4,310.2c-30.1,23.6-62.3,43.7-97.1,61.3c10.7,6.3,21.5,9.8,33,11c21,2.3,40.6-1.4,57-15.6
			C684.9,351.8,684.8,328,674.4,310.2z"/>
		<path fill="#FFFFFF" d="M382.4,432.2c-1,14.9-1.7,29-2.9,43.1c-0.1,1.6-2.4,3.3-4.1,4.3c-29.4,17.1-58.8,34.1-88.3,51.1
			c-1.4,0.8-2.8,1.7-5,3c1.9,1.2,3.3,2.1,4.8,3c23.1,13,46.1,26,69.3,38.8c13.4,7.4,24.5,17.1,33.8,29.1
			c19.5,25.2,32.9,53.6,44.9,82.8c19.9,48.5,34.4,98.8,49,149c5,17.1,10,34.2,16.2,51.5c0.6-1.7,1.3-3.4,1.8-5.1
			c13.3-44.3,26.2-88.8,40.1-133c12.6-39.9,27.4-79,48-115.7c3.6-6.4,7.6-12.5,11.6-18.7c11.8-18,26.8-32.4,46.1-42.5
			c21.8-11.5,43.1-24,64.6-36c1.5-0.9,3.1-1.8,5.2-3.1c-2.4-1.4-4-2.5-5.7-3.4c-29.1-16.8-58.3-33.7-87.5-50.4
			c-3.3-1.9-4.4-4-4.6-7.8c-0.6-11.5-1.7-22.9-2.7-34.4c-0.1-1.6-0.3-3.2-0.5-4.7c9.9-1.1,19.4-1.5,28.6-3.2
			c24.6-4.6,46.2-15.3,62.8-34.5c24.9-28.8,28.2-61.5,15.4-96.4c-2.5-6.9-6.1-13.3-8.9-20.1c-0.5-1.3-0.3-3.6,0.5-4.7
			c15.6-19.1,31.3-38,47.1-57c0.2-0.2,0.6-0.3,1.4-0.8c2.6,4.9,5.3,9.8,7.8,14.8c23.9,47.6,34.1,98.1,33,151.3
			c-0.8,39.8-0.5,79.7,0.7,119.5c2.9,98.7,25.1,192.6,70.7,280.6c0.3,0.6,0.5,1.2,0.2,2.6c-33.8-27.3-67.6-54.5-102.1-82.3
			C749.3,742.5,725,782,700.4,822c-25.8-24.3-51.3-48.2-77.2-72.6c-41.1,66.7-82,133-123.3,200.1c-41.3-67.1-82.2-133.3-123.3-200.1
			c-25.9,24.3-51.3,48.3-77.2,72.6c-24.5-39.8-48.8-79.2-73.5-119.2c-34.1,27.5-68,54.8-101.8,82.1c-0.2-0.2-0.5-0.4-0.7-0.6
			c0.7-1.4,1.3-2.9,2-4.3c34.8-67.9,55.5-140.1,64.8-215.7c4.7-38.5,5.2-77.1,5.4-115.8c0.2-27.5,0-55,0-82.5
			c0-52.9,14.4-101.9,39.7-148.1c0.3-0.6,0.8-1,1.3-1.8c1.1,1.3,2,2.5,2.9,3.6c14.8,17.8,29.5,35.7,44.4,53.4c2.2,2.6,2.1,4.3,0.8,7
			c-6.9,13.4-12.7,27.2-14.7,42.3c-5.1,39.1,12.2,73.7,46.9,93.7c18.4,10.6,38.4,15.8,59.7,16.1
			C378.6,432.2,380.5,432.2,382.4,432.2z"/>
		<path fill="#FFFFFF" d="M208.6,96.3c7.3,7.6,13.5,15.4,21.1,21.5c9.6,7.6,20.2,14,30.6,20.4c3.3,2,7.4,2.8,11.3,4
			c6.3,2,11.1,0.8,16.4-4.3c51.2-50.2,112.7-78.9,184-84.9c93.4-7.8,174.3,21,241.7,86.5c3.3,3.2,6.5,4.8,10.6,3.3
			c8.4-3,17.2-5.5,24.9-9.8c15.1-8.2,27.5-19.8,38.1-33.3c1-1.2,1.9-2.4,3.9-3.2c-1.9,4.9-3.7,9.9-5.8,14.7
			c-13.3,30.4-32.4,57-54.4,81.6c-49.5,55.5-106.7,101.2-172.8,135.7c-5.2,2.7-8.7,2.6-13.7-0.8c-28.8-19.2-62.9-18.4-91.9,1.6
			c-2.8,1.9-4.9,2.3-8,0.7c-79-41.1-146.1-96.3-200-167.2c-14.2-18.6-25.9-38.8-34-60.8C210,100.5,209.4,98.8,208.6,96.3z"/>
		<path fill="#FFFFFF" d="M618.3,532.9c-1.3,1-1.9,1.5-2.6,1.9c-33.5,19.4-57.3,47.8-74.8,81.9c-15,29.2-24.9,60.3-34.8,91.4
			c-1.9,6-3.8,12-6.1,19.4c-1-3-1.6-4.6-2.2-6.2c-10-28.6-19.1-57.6-30.3-85.7c-13-32.6-31.9-61.5-59.5-83.9
			c-8.1-6.6-16.9-12.3-25.7-18.6c0.5-0.5,1.3-1.3,2.2-1.8c11.5-6.6,23.1-13.3,34.7-19.8c7.2-4,10.2-10,9.9-18.2
			c-0.8-21.2-0.2-42.3,4.9-63.1c5.7-22.9,17-42.2,36-56.6c19.2-14.6,40.7-14.6,59.8,0.1c22.3,17.1,34.2,40.3,37.9,67.5
			c2.3,16.9,2.5,34.2,2.8,51.3c0.2,9.2,3.2,15.4,11.5,19.8C594.1,518.6,605.7,525.7,618.3,532.9z"/>
		<path fill="#FFFFFF" d="M422.5,371.5c-10.7,6.3-21.5,9.7-33,11c-17.7,2-34.6-0.5-49.9-10.2c-23.2-14.8-26.3-38.1-15.2-61.2
			c0.1-0.3,0.5-0.4,1.2-0.8C355.5,333.8,387.7,354,422.5,371.5z"/>
		<path fill="#FFFFFF" d="M674.4,310.2c10.4,17.8,10.5,41.6-7,56.7c-16.5,14.2-36,17.8-57,15.6c-11.5-1.2-22.3-4.7-33-11
			C612.1,353.9,644.4,333.8,674.4,310.2z"/>
	</g>
</g>
</svg>
